<?xml version="1.0" standalone="no"?>
<!DOCTYPE svg PUBLIC "-//W3C//DTD SVG 20010904//EN"
 "http://www.w3.org/TR/2001/REC-SVG-20010904/DTD/svg10.dtd">
<svg version="1.0" xmlns="http://www.w3.org/2000/svg"
 width="260.000000pt" height="260.000000pt" viewBox="0 0 260.000000 260.000000"
 preserveAspectRatio="xMidYMid meet">
<metadata>
Created by potrace 1.11, written by Peter Selinger 2001-2013
</metadata>
<g transform="translate(0.000000,260.000000) scale(0.100000,-0.100000)"
fill="#000000" stroke="none">
<path d="M140 1300 l0 -1300 1145 0 c1178 0 1169 0 1136 36 -9 10 -15 21 -196
359 -65 121 -130 243 -146 272 l-28 52 22 14 c34 22 125 116 172 177 86 112
175 302 191 409 3 20 9 54 14 75 5 22 7 103 5 180 -3 144 -16 208 -66 346 -19
52 -95 199 -108 210 -3 3 -19 24 -35 47 -39 58 -178 190 -251 238 -72 47 -204
115 -225 115 -9 0 -20 4 -25 8 -16 14 -93 34 -185 48 -63 9 -256 13 -752 14
l-668 0 0 -1300z"/>
</g>
</svg>
