<?xml version="1.0" encoding="UTF-8"?>
<svg width="400px" height="89px" viewBox="0 0 400 89" version="1.1" xmlns="http://www.w3.org/2000/svg" xmlns:xlink="http://www.w3.org/1999/xlink">
    <!-- Generator: Sketch 61 (89581) - https://sketch.com -->
    <title>featured-skynews</title>
    <desc>Created with Sketch.</desc>
    <g id="Website-v02" stroke="none" stroke-width="1" fill="none" fill-rule="evenodd">
        <g id="Artboard" transform="translate(-1287.000000, -1059.000000)" fill-rule="nonzero">
            <g id="featured-skynews" transform="translate(1287.000000, 1059.000000)">
                <path d="M388.071974,81.2746341 C388.071974,83.6114632 386.160023,85.5234143 383.823194,85.5234143 L7.4520773,85.5234143 C5.11524816,85.5234143 3.20329705,83.6114632 3.20329705,81.2746341 L3.20329705,7.27504479 C3.20329705,4.93821565 5.11524816,3.02626454 7.4520773,3.02626454 L383.823194,3.02626454 C386.160023,3.02626454 388.071974,4.93821565 388.071974,7.27504479 L388.071974,81.2746341 Z" id="Layer_2" fill="#FFFFFF"></path>
                <path d="M390.939901,0.052118371 L390.762868,0.052118371 L9.1869959,0.016711869 L9.00996339,0.016711869 C3.9468336,0.512402898 0.016711869,5.6817522 0.016711869,11.7716705 L0.016711869,76.6363823 C0.016711869,82.9387397 4.19467911,88.0726825 9.29321541,88.0726825 L390.692055,88.0726825 C395.825998,88.0726825 399.968559,82.9387397 399.968559,76.6363823 L399.968559,11.8070771 C399.968559,5.7171587 396.003031,0.5478094 390.939901,0.052118371 M146.776663,84.1071542 L9.29321541,84.1071542 C5.85878471,84.1071542 3.02626454,80.5310975 3.02626454,76.1406913 L3.02626454,11.2759795 C3.02626454,6.99179277 5.7879717,3.38032956 9.32862191,3.02626454 L146.776663,3.02626454 L146.776663,84.1071542 Z M215.004992,72.9541061 L214.509301,73.1311386 C213.093041,73.6976426 211.393529,73.9808947 209.481578,73.9808947 C207.215562,73.9808947 205.551456,73.6268296 204.418448,72.9541061 C203.320847,72.2813826 202.435684,71.39622 201.727554,70.2986184 L177.297068,31.4576857 L177.297068,69.3426429 C177.297068,70.6526835 176.87219,71.750285 176.093247,72.6354476 C175.243491,73.5560166 173.862637,73.9808947 171.80906,73.9808947 C170.923897,73.9808947 170.038735,73.9454881 169.153572,73.8746751 C168.233003,73.8038621 167.56028,73.7330491 167.029182,73.5914231 L166.427272,73.4497971 L166.427272,15.9142313 L166.887556,15.7017923 C167.595686,15.3831338 168.480849,15.1352882 169.543044,14.9936622 C170.569832,14.8520362 171.525808,14.7812232 172.375564,14.7812232 C174.889425,14.7812232 176.659751,15.1352882 177.828165,15.8080118 C178.961173,16.4807353 179.917149,17.4721174 180.766905,18.711345 L204.312229,55.9235786 L204.347635,19.419475 C204.347635,18.1802474 204.737107,17.0826459 205.551456,16.1620768 C206.401212,15.2061012 207.782066,14.7458167 209.76483,14.7458167 C210.614586,14.7458167 211.464342,14.7812232 212.349505,14.8874427 C213.234667,14.9936622 213.907391,15.0998817 214.438488,15.2061012 L215.040399,15.3477273 L215.004992,72.9541061 L215.004992,72.9541061 Z M259.015274,72.1397565 C258.165518,73.0249191 257.103323,73.4852036 255.828689,73.4852036 L228.919748,73.4852036 C226.476699,73.4852036 224.883406,72.9541061 224.13987,71.891911 C223.43174,70.900529 223.077675,69.6613014 223.077675,68.1388218 L223.077675,20.269231 C223.077675,18.7467515 223.43174,17.5075239 224.13987,16.5161418 C224.918813,15.4539468 226.476699,14.9228492 228.919748,14.9228492 L258.979868,14.9228492 L259.121494,15.5247598 C259.26312,16.0204508 259.369339,16.6931743 259.440152,17.5429304 C259.546372,18.3926864 259.581778,19.2424425 259.581778,20.0921985 C259.581778,22.0395561 259.1569,23.3850032 258.236331,24.1993528 C257.351169,25.0137023 256.288974,25.4031738 255.049746,25.4031738 L234.443162,25.4031738 L234.443162,39.1408966 L256.961697,39.1408966 L257.280356,41.6193518 C257.386575,42.3628883 257.421982,43.1772379 257.421982,44.0269939 C257.421982,45.9035385 256.997104,47.2135791 256.182754,47.9925221 C255.368405,48.7714652 254.341616,49.1609367 253.137795,49.1609367 L234.443162,49.1609367 L234.443162,62.934066 L259.86503,62.934066 L260.183689,65.4125212 C260.289908,66.1560577 260.325315,66.9704072 260.325315,67.8201633 C260.289908,69.8737404 259.86503,71.254594 259.015274,72.1397565 M325.508685,69.0947974 C325.048401,71.2191875 324.057019,72.6354476 322.569946,73.2373581 C321.259905,73.8038621 319.524986,74.0871142 317.506816,74.0871142 C316.621653,74.0871142 315.559458,74.0517077 314.355637,73.9454881 C313.116409,73.8392686 312.054214,73.6622361 311.169052,73.3435776 L310.77958,73.2019516 C310.77958,73.2019516 300.86576,30.3246776 300.794947,30.0768321 C300.440882,31.7409377 291.589256,69.1302039 291.589256,69.1302039 C291.058159,71.183781 290.13759,72.5292281 288.862956,73.2019516 C287.694541,73.8038621 286.065842,74.1225207 284.083078,74.1225207 C283.127102,74.1225207 281.994094,74.0517077 280.71946,73.9454881 C279.40942,73.8038621 278.311818,73.5914231 277.426655,73.2727646 L277.001777,73.1311386 L264.92816,16.2328898 L265.494664,15.9850443 C266.167388,15.6663858 266.946331,15.3831338 267.831493,15.1706947 C268.752062,14.9228492 269.814257,14.7812232 270.982672,14.7812232 C272.505152,14.7812232 273.815192,15.0644752 274.877387,15.6663858 C276.010395,16.3037028 276.753932,17.4721174 277.107997,19.1716295 C277.107997,19.1716295 284.083078,57.6230907 284.401736,59.3934158 C284.720395,57.6230907 293.713646,19.490288 293.713646,19.490288 C294.103118,17.7553694 295.059093,16.4807353 296.546167,15.7726053 C297.891614,15.0998817 299.626532,14.7812232 301.680109,14.7812232 C303.662873,14.7812232 305.504012,15.0290687 307.168117,15.5247598 L307.592995,15.6663858 C307.592995,15.6663858 317.36519,57.9063427 317.719255,59.8537003 C317.754661,59.6058548 324.942181,18.9591905 324.942181,18.9591905 C325.225433,17.4013044 325.898157,16.2682963 326.995758,15.6663858 C327.98714,15.0998817 329.226368,14.8166297 330.713441,14.8166297 C331.775636,14.8166297 332.731612,14.9228492 333.616774,15.1352882 C334.46653,15.3477273 335.210067,15.5955728 335.811977,15.8080118 L336.413888,16.0558573 L325.508685,69.0947974 L325.508685,69.0947974 Z M382.159088,63.5359765 C381.273926,65.7665862 379.857666,67.6785373 377.945715,69.2718299 C376.06917,70.8651225 373.661528,72.10435 370.829008,72.9541061 C368.031894,73.8038621 364.597463,74.2641467 360.702748,74.2641467 C357.799415,74.2641467 354.61283,73.9808947 351.213806,73.3789841 C347.814782,72.7770736 344.309538,71.891911 340.804294,70.7234965 L340.273197,70.546464 L340.273197,69.9799599 C340.273197,69.8029274 340.273197,69.6258949 340.23779,69.4842689 C340.202384,69.2718299 340.166977,69.0239844 340.166977,68.7407323 C340.166977,66.6871552 340.556449,64.9876431 341.335392,63.6421961 C342.185148,62.1905295 343.566001,61.4469929 345.442546,61.4469929 C346.256895,61.4469929 347.212871,61.5886189 348.345879,61.8010579 L351.886529,62.580001 C353.19657,62.863253 354.648236,63.146505 356.206122,63.358944 C357.764009,63.571383 359.498927,63.7130091 361.410878,63.7130091 C365.234781,63.7130091 367.961081,63.0402855 369.554374,61.6948384 C371.11226,60.3847979 371.855796,58.7560988 371.855796,56.7733347 C371.855796,55.7819526 371.678764,54.9676031 371.324699,54.2948795 C370.970634,53.622156 370.474943,53.0202454 369.802219,52.5599609 C369.094089,52.0642699 368.244333,51.6039854 367.217545,51.2145138 C366.15535,50.8250423 364.916122,50.4001643 363.535268,50.0106928 L356.276935,47.9925221 C350.399456,46.3638231 346.256895,44.0624004 343.920066,41.1590673 C341.547831,38.2203276 340.379416,34.8213034 340.379416,31.0328077 C340.379416,29.1562631 340.733481,27.1734989 341.370798,25.2261413 C342.043522,23.2079707 343.247343,21.4022391 344.911448,19.77354 C346.575554,18.1802474 348.770757,16.8702068 351.497058,15.8434183 C354.187952,14.8166297 357.622383,14.2855322 361.69413,14.2855322 C364.420431,14.2855322 367.359171,14.5687842 370.474943,15.0998817 C373.555308,15.6309793 376.848113,16.4807353 380.211731,17.6845564 L380.742828,17.8615889 L380.742828,19.631914 C380.742828,21.7563041 380.353357,23.4558162 379.60982,24.6950438 C378.795471,26.0404909 377.450024,26.7486209 375.644292,26.7486209 C374.829943,26.7486209 373.909374,26.6424014 372.988804,26.4299624 C372.103642,26.2175234 371.076853,26.0404909 369.943845,25.8280519 C368.846244,25.6156129 367.536203,25.4385803 366.084537,25.2261413 C364.668276,25.0137023 363.039577,24.9428893 361.269252,24.9428893 C359.321895,24.9428893 357.657789,25.1199218 356.383155,25.4739868 C355.143927,25.8280519 354.152545,26.2883364 353.409009,26.8548404 C352.700879,27.4213445 352.169781,28.023255 351.886529,28.6959785 C351.567871,29.3687021 351.426245,30.0768321 351.426245,30.7849622 C351.426245,32.4844742 351.957342,33.6882953 353.09035,34.5380514 C354.329578,35.4586204 356.595594,36.414596 359.888399,37.2997585 L367.607016,39.4949617 C378.158154,42.2566688 383.504536,47.8863026 383.504536,56.2068306 C383.469129,58.8623183 383.044251,61.3407734 382.159088,63.5359765" id="Shape" fill="#000000"></path>
                <path d="M25.9342714,48.9839042 L34.7504904,50.6834163 C37.9724821,51.2853268 39.6365877,52.0288634 39.6365877,53.763782 C39.6365877,55.1092291 38.3619536,56.5254891 34.2193928,56.5254891 C30.4308971,56.5254891 25.3677673,55.9589851 22.1811822,55.9589851 C19.06541,55.9589851 15.7726053,57.3752452 15.7726053,63.4651635 C15.7726053,64.2087001 15.9142313,65.1646756 16.0912638,65.9082122 C20.6941091,66.4393097 30.4663036,67.2890658 37.193539,66.5809357 C46.4700426,65.5895537 51.0374813,60.4556109 51.0374813,53.48053 C51.0374813,47.4614246 47.3197986,42.5399208 38.6806121,40.9466282 L30.2892711,39.3887421 C27.598377,38.8930511 25.8988649,38.2911406 25.8988649,36.768661 C25.8988649,35.3169944 27.66919,34.1485798 31.9533767,34.1485798 C36.1667505,34.1485798 39.8490267,34.6088644 42.2566688,34.6088644 C45.372441,34.6088644 48.5590262,33.2988238 48.5590262,27.2089054 C48.5590262,26.3945559 48.4882132,25.6510194 48.3111807,24.8366698 C43.7083354,24.2701658 35.3524009,23.4204097 28.448133,24.1639463 C19.3132555,25.1199218 14.6750037,30.5725231 14.6750037,37.122726 C14.6750037,42.5045143 18.6051254,47.5676441 25.9342714,48.9839042" id="Path" fill="#000000"></path>
                <path d="M66.1206512,60.9513019 L66.1206512,9.50565442 C65.2354886,9.32862191 64.3149196,9.2224024 63.3943505,9.2224024 C55.9943916,9.2224024 54.7197575,13.1525241 54.7197575,16.9410198 L54.7197575,66.6871552 C55.5341071,66.7933747 56.3838631,66.8641877 57.3398387,66.8641877 C64.6335781,66.8641877 66.1206512,64.7043911 66.1206512,60.9513019" id="Path" fill="#000000"></path>
                <path d="M87.2937394,66.9704072 C90.2324791,66.9704072 92.6755277,66.2976837 93.7731293,65.7665862 L80.141626,45.1954085 L89.8076011,34.9629294 L105.669714,59.8537003 L96.0391454,80.212439 C96.995121,80.70813 98.9778851,81.3100406 101.45634,81.3808536 C105.70512,81.4516666 108.006543,79.8229675 109.741462,76.0344718 L132.543249,25.1553283 C131.587273,24.6596373 129.533696,24.0931333 127.798778,24.0577268 C124.860038,24.0223203 120.929916,24.6242308 118.416055,30.6079296 L111.016096,48.0279286 L96.5348365,24.4471983 C95.6142674,24.1639463 93.3128448,23.7390682 91.6487392,23.7390682 C86.5502029,23.7390682 83.6822762,25.6156129 80.70813,28.8376045 L66.6163422,44.2394329 L77.9464229,62.0489035 C80.070813,65.3063016 82.8325202,66.9704072 87.2937394,66.9704072" id="Path" fill="#000000"></path>
            </g>
        </g>
    </g>
</svg>