<?xml version="1.0" encoding="UTF-8"?>
<svg width="297px" height="150px" viewBox="0 0 297 150" version="1.1" xmlns="http://www.w3.org/2000/svg" xmlns:xlink="http://www.w3.org/1999/xlink">
    <!-- Generator: Sketch 61 (89581) - https://sketch.com -->
    <title>featured-itv</title>
    <desc>Created with Sketch.</desc>
    <g id="Website-v02" stroke="none" stroke-width="1" fill="none" fill-rule="evenodd">
        <g id="Artboard" transform="translate(-1324.000000, -403.000000)">
            <g id="featured-itv" transform="translate(1324.000000, 403.000000)">
                <path d="M14.5809375,0.736640625 C27.96375,-3.10710938 42.5184375,8.65851562 38.9090625,22.8147656 C38.698125,42.6428906 6.260625,45.0803906 0.916875,27.0335156 C-2.1065625,16.3460156 2.323125,2.49445312 14.5809375,0.736640625 Z" id="Fill-1" fill="#05BDC9"></path>
                <path d="M83.3463281,17.5647656 C90.9871875,7.46320313 110.1825,8.42414062 119.510391,15.9241406 C122.9325,27.6663281 120.377813,40.3928906 120.846328,52.4866406 C132.073125,53.5178906 143.37,52.7444531 154.643203,53.0257031 C154.877813,61.1116406 154.877813,69.1975781 154.572891,77.2600781 C143.37,77.1428906 131.909063,78.4085156 120.96375,75.2444531 C121.034063,81.9944531 121.432266,88.7444531 120.916875,95.4710156 C118.995,110.471016 111.424688,124.603828 99.7059375,134.213203 C92.510625,126.736641 87.4478906,117.619453 83.37,108.150703 C82.52625,78.0335156 82.573125,47.6819531 83.3463281,17.5647656 Z" id="Fill-2" fill="#010101"></path>
                <path d="M175.666641,69.9241406 C178.666641,50.6116406 215.252578,41.8460156 216.448125,67.0882031 C216.541875,84.3616406 214.690312,102.221016 206.252812,117.619453 C198.40125,109.416328 191.698125,100.252266 185.580938,90.6897656 C181.737188,84.0803906 177.471563,77.4241406 175.666641,69.9241406 Z" id="Fill-3" fill="#C70363"></path>
                <path d="M272.932031,51.9475781 C281.182031,51.6194531 288.939844,54.5257031 296.463281,57.5491406 C291.096094,85.9319531 275.557031,111.853828 261.142969,136.721016 C254.275781,150.947578 234.635156,152.635078 222.354375,145.017891 C215.065313,138.033516 211.010625,128.424141 204.518438,120.760078 C204.940313,119.963203 205.807266,118.392891 206.252813,117.619453 C214.690313,102.221016 216.541875,84.3616406 216.448125,67.0882031 C229.385625,81.2210156 235.689844,99.8069531 246.119531,115.650703 C259.291406,96.5960156 265.947656,73.8147656 272.932031,51.9475781 Z" id="Fill-4" fill="#FBAC06"></path>
                <path d="M0.4715625,53.2835156 C12.9403125,51.8538281 25.5496875,52.9553906 38.08875,52.4866406 C41.1121875,73.2991406 35.83875,94.9553906 41.1121875,115.416328 C49.7840625,133.885078 79.385625,127.135078 83.37,108.150703 C87.4478906,117.619453 92.510625,126.736641 99.7059375,134.213203 L99.1666406,134.728828 C81.354375,150.806953 53.885625,152.283516 31.6903125,145.721016 C15.0496875,141.666328 1.995,126.689766 0.77625,109.533516 C-0.0675,90.8069531 0.541875,72.0335156 0.4715625,53.2835156 Z" id="Fill-5" fill="#03BDC9"></path>
                <path d="M185.580938,90.6897656 C191.698125,100.252266 198.40125,109.416328 206.252812,117.619453 C205.807266,118.392891 204.940313,119.963203 204.518438,120.760078 C183.119766,156.174141 130.432266,156.853828 99.1666406,134.728828 L99.7059375,134.213203 C111.424688,124.603828 118.995,110.471016 120.916875,95.4710156 C117.752578,125.588203 159.471563,135.760078 177.565313,116.517891 C184.010625,109.533516 185.627578,99.8538281 185.580938,90.6897656 Z" id="Fill-6" fill="#8A7B14"></path>
            </g>
        </g>
    </g>
</svg>