<?xml version="1.0" encoding="UTF-8"?>
<svg width="200px" height="153px" viewBox="0 0 200 153" version="1.1" xmlns="http://www.w3.org/2000/svg" xmlns:xlink="http://www.w3.org/1999/xlink">
    <!-- Generator: Sketch 61 (89581) - https://sketch.com -->
    <title>featured-bbc</title>
    <desc>Created with Sketch.</desc>
    <g id="Website-v02" stroke="none" stroke-width="1" fill="none" fill-rule="evenodd">
        <g id="Artboard" transform="translate(-843.000000, -658.000000)">
            <g id="featured-bbc" transform="translate(843.000000, 658.000000)">
                <polygon id="Fill-1" fill="#900D0C" points="0 152.725403 199.663306 152.725403 199.663306 0 0 0"></polygon>
                <polygon id="Fill-2" fill="#FFFFFF" points="53.1883065 61.4310484 81.3649194 61.4310484 81.3649194 32.7798387 53.1883065 32.7798387"></polygon>
                <polygon id="Fill-3" fill="#FFFFFF" points="85.7439516 61.4310484 113.921774 61.4310484 113.921774 32.7798387 85.7439516 32.7798387"></polygon>
                <polygon id="Fill-4" fill="#FFFFFF" points="118.300403 61.4310484 146.477016 61.4310484 146.477016 32.7798387 118.300403 32.7798387"></polygon>
                <path d="M66.3056452,48.1875 L63.6108871,48.1875 L63.6108871,54.6794355 L66.4475806,54.6794355 C68.0254032,54.6794355 69.0915323,54.5556452 69.6528226,54.3048387 C70.2120968,54.0552419 70.6641129,53.6653226 71.008871,53.1403226 C71.3467742,52.6096774 71.5197581,52.0471774 71.5197581,51.4375 C71.5197581,50.8149194 71.3375,50.2439516 70.978629,49.7241935 C70.6149194,49.2092742 70.1028226,48.8245968 69.4447581,48.5669355 C68.7818548,48.3137097 67.7354839,48.1875 66.3056452,48.1875 M66.0887097,39.425 L63.6108871,39.425 L63.6108871,45.5774194 L65.5282258,45.5774194 C67.0620968,45.5774194 68.1528226,45.2834677 68.8012097,44.6818548 C69.45,44.0879032 69.7737903,43.3193548 69.7737903,42.3733871 C69.7737903,40.4064516 68.5455645,39.425 66.0887097,39.425 M67.5443548,57.2866935 L60.7318548,57.2866935 L60.7318548,36.8145161 L66.0004032,36.8145161 C67.6612903,36.8145161 68.958871,37.0447581 69.8883065,37.4943548 C70.821371,37.9495968 71.528629,38.5762097 72.0201613,39.3717742 C72.5137097,40.1709677 72.7532258,41.0927419 72.7532258,42.1379032 C72.7532258,44.1487903 71.7314516,45.5879032 69.6866935,46.4584677 C71.1540323,46.7423387 72.3254032,47.3580645 73.1939516,48.3032258 C74.0649194,49.2560484 74.4975806,50.3842742 74.4975806,51.7052419 C74.4975806,52.7491935 74.2326613,53.6782258 73.7060484,54.5 C73.1758065,55.3225806 72.403629,55.991129 71.3802419,56.5120968 C70.3600806,57.0270161 69.0770161,57.2866935 67.5443548,57.2866935" id="Fill-5" fill="#900D0C"></path>
                <path d="M98.9798387,48.1875 L96.2862903,48.1875 L96.2862903,54.6794355 L99.1225806,54.6794355 C100.70121,54.6794355 101.765323,54.5556452 102.327016,54.3048387 C102.88629,54.0552419 103.340726,53.6653226 103.684274,53.1403226 C104.022177,52.6096774 104.193952,52.0471774 104.193952,51.4375 C104.193952,50.8149194 104.011694,50.2439516 103.652823,49.7241935 C103.289113,49.2092742 102.779435,48.8245968 102.118952,48.5669355 C101.458468,48.3137097 100.409677,48.1875 98.9798387,48.1875 M98.7625,39.425 L96.2862903,39.425 L96.2862903,45.5774194 L98.203629,45.5774194 C99.7375,45.5774194 100.828226,45.2834677 101.476613,44.6818548 C102.124194,44.0879032 102.446774,43.3193548 102.446774,42.3733871 C102.446774,40.4064516 101.222177,39.425 98.7625,39.425 M100.218548,57.2866935 L93.4072581,57.2866935 L93.4072581,36.8145161 L98.6758065,36.8145161 C100.336694,36.8145161 101.635484,37.0447581 102.56371,37.4943548 C103.496774,37.9495968 104.204032,38.5762097 104.695565,39.3717742 C105.187097,40.1709677 105.428629,41.0927419 105.428629,42.1379032 C105.428629,44.1487903 104.406855,45.5879032 102.360887,46.4584677 C103.829435,46.7423387 104.999597,47.3580645 105.870565,48.3032258 C106.741532,49.2560484 107.172984,50.3842742 107.172984,51.7052419 C107.172984,52.7491935 106.907661,53.6782258 106.382661,54.5 C105.849597,55.3225806 105.080242,55.991129 104.058468,56.5120968 C103.034274,57.0270161 101.752419,57.2866935 100.218548,57.2866935" id="Fill-6" fill="#900D0C"></path>
                <path d="M140.817339,52.5383065 L140.817339,55.7608871 C138.703629,56.9370968 136.264919,57.5221774 133.49879,57.5221774 C131.252419,57.5221774 129.349597,57.0592742 127.784274,56.1403226 C126.219355,55.2254032 124.981855,53.9604839 124.066532,52.3512097 C123.156452,50.7326613 122.69879,48.9947581 122.69879,47.1177419 C122.69879,44.1370968 123.744355,41.6310484 125.831855,39.5991935 C127.919758,37.5697581 130.498387,36.5508065 133.555645,36.5508065 C135.672177,36.5508065 138.017339,37.1137097 140.601613,38.2342742 L140.601613,41.3866935 C138.245968,40.021371 135.945161,39.3350806 133.699194,39.3350806 C131.400403,39.3350806 129.484677,40.0762097 127.966532,41.5568548 C126.443145,43.0370968 125.678629,44.8858871 125.678629,47.1177419 C125.678629,49.3629032 126.432258,51.2100806 127.924597,52.6564516 C129.424597,54.1020161 131.340726,54.8245968 133.670161,54.8245968 C136.108871,54.8245968 138.490323,54.0604839 140.817339,52.5383065" id="Fill-7" fill="#900D0C"></path>
                <polygon id="Fill-8" fill="#FFFFFF" points="57.3653226 75.3403226 62.4608871 75.3403226 62.4608871 112.806129 57.8479839 112.806129 32.7990726 83.9516129 32.7990726 112.806129 27.7571371 112.806129 27.7571371 75.3403226 32.1018952 75.3403226 57.3653226 104.439919"></polygon>
                <polygon id="Fill-9" fill="#FFFFFF" points="70.4794355 75.3403226 91.7197581 75.3403226 91.7197581 80.1141129 75.8431452 80.1141129 75.8431452 91.5387097 91.1834677 91.5387097 91.1834677 96.3391129 75.8431452 96.3391129 75.8431452 107.978629 92.2294355 107.978629 92.2294355 112.7525 70.4794355 112.7525"></polygon>
                <polygon id="Fill-10" fill="#FFFFFF" points="145.666935 75.3403226 151.016532 75.3403226 135.868952 112.967016 134.690726 112.967016 122.440726 82.5008065 110.064113 112.967016 108.9125 112.967016 93.8116935 75.3403226 99.216129 75.3403226 109.541129 101.166935 119.935081 75.3403226 125.005645 75.3403226 135.447984 101.166935"></polygon>
                <path d="M164.452419,97.1084677 L160.37621,94.6318548 C157.819355,93.0705645 156,91.5350806 154.918145,90.0237903 C153.836694,88.5133065 153.295968,86.7745968 153.295968,84.8076613 C153.295968,81.8576613 154.319355,79.4616935 156.366532,77.6201613 C158.41371,75.7790323 161.073387,74.8576613 164.345161,74.8576613 C167.47379,74.8576613 170.343145,75.7362903 172.954032,77.4931452 L172.954032,83.5806452 C170.254435,80.983871 167.349194,79.6850806 164.237903,79.6850806 C162.485484,79.6850806 161.046774,80.0903226 159.920161,80.9008065 C158.793952,81.7108871 158.230645,82.7483871 158.230645,84.0125 C158.230645,85.1350806 158.645565,86.1858871 159.475,87.1653226 C160.304839,88.1451613 161.639113,89.1729839 163.477823,90.2504032 L167.574194,92.6745968 C172.143952,95.4040323 174.429032,98.878629 174.429032,103.097984 C174.429032,106.101613 173.423387,108.541935 171.412097,110.419758 C169.400403,112.296774 166.785887,113.235323 163.567742,113.235323 C159.866532,113.235323 156.496371,112.098387 153.456855,109.822581 L153.456855,103.010887 C156.353226,106.680645 159.705645,108.515323 163.514113,108.515323 C165.194355,108.515323 166.593548,108.047581 167.710887,107.1125 C168.828226,106.177016 169.387097,105.006048 169.387097,103.598387 C169.387097,101.317742 167.741935,99.1548387 164.452419,97.1084677" id="Fill-11" fill="#FFFFFF"></path>
            </g>
        </g>
    </g>
</svg>