<?xml version="1.0" encoding="UTF-8"?>
<svg width="400px" height="132px" viewBox="0 0 400 132" version="1.1" xmlns="http://www.w3.org/2000/svg" xmlns:xlink="http://www.w3.org/1999/xlink">
    <!-- Generator: Sketch 61 (89581) - https://sketch.com -->
    <title>featured-guardian</title>
    <desc>Created with Sketch.</desc>
    <g id="Website-v02" stroke="none" stroke-width="1" fill="none" fill-rule="evenodd">
        <g id="Artboard" transform="translate(-1273.000000, -658.000000)" fill="#121212" fill-rule="nonzero">
            <path d="M1363.88751,728.07834 L1370.86007,724.46997 L1370.86007,669.625462 L1365.58317,669.625462 L1352.69614,686.71774 L1351.24465,686.71774 L1352.05857,667.49571 L1407.92047,667.49571 L1408.73439,686.731305 L1407.18795,686.731305 L1394.57222,669.639027 L1389.1461,669.639027 L1389.1461,724.334317 L1396.15936,728.037644 L1396.15936,729.89609 L1363.88751,729.89609 L1363.88751,728.07834 M1414.18764,725.663716 L1414.18764,664.904738 L1408.76152,662.73429 L1408.76152,661.60837 L1428.32268,658 L1430.466,658 L1430.466,686.839828 L1430.92722,686.378608 C1435.61403,682.393258 1441.55563,680.188354 1447.7075,680.152135 C1456.28077,680.152135 1460.06549,684.994947 1460.06549,694.015871 L1460.06549,725.663716 L1464.65056,728.159731 L1464.65056,729.89609 L1439.05284,729.89609 L1439.05284,728.159731 L1443.65147,725.650151 L1443.65147,693.907349 C1443.65147,688.942449 1441.48103,686.961915 1437.425,686.961915 C1434.97511,686.909418 1432.58083,687.699461 1430.64235,689.20019 L1430.64235,725.745108 L1435.1596,728.241123 L1435.1596,729.89609 L1409.54831,729.89609 L1409.54831,728.241123 L1414.18764,725.663716 M1478.56856,706.997863 C1479.0976,717.036185 1483.60128,724.809102 1494.26361,724.809102 C1499.41842,724.809102 1503.08105,722.42161 1506.47238,720.603859 L1506.47238,722.584393 C1501.85475,728.215485 1494.92559,731.440228 1487.64374,731.347577 C1471.12121,731.347577 1462.68359,722.163869 1462.68359,706.265337 C1462.68359,690.719504 1471.92156,681.033879 1486.84339,681.033879 C1500.88347,681.033879 1508.16804,688.047139 1508.16804,706.536643 L1508.16804,707.011429 L1478.56856,706.997863 M1478.29725,704.678197 L1492.86638,703.796453 C1492.86638,691.357073 1490.73663,683.095805 1486.46356,683.095805 C1481.90562,683.10937 1478.29725,692.700037 1478.29725,704.691762 L1478.29725,704.678197 M1273,754.218673 C1273,727.779903 1290.49924,718.365585 1309.99257,718.365585 C1318.26741,718.365585 1326.06745,719.722115 1330.43548,721.499169 L1330.81531,739.947977 L1328.95686,739.947977 L1317.52131,722.096042 C1315.22227,721.177536 1312.7485,720.779123 1310.27744,720.929427 C1299.91356,720.929427 1294.60952,732.907586 1294.78587,752.536575 C1294.97579,776.01811 1299.05894,786.694001 1308.56822,786.694001 C1310.51592,786.7583 1312.45712,786.435582 1314.27921,785.74443 L1314.27921,760.594364 L1307.99847,757.02669 L1307.99847,754.883372 L1338.33048,754.883372 L1338.33048,757.135212 L1332.14471,760.594364 L1332.14471,785.418863 C1324.78404,788.026656 1317.02822,789.343711 1309.21935,789.312659 C1287.06722,789.312659 1273,779.043172 1273,754.218673 L1273,754.218673 M1335.5089,741.887815 L1335.5089,740.354936 L1355.85685,736.760132 L1358.09513,736.950046 L1358.09513,777.157595 C1358.09513,782.000407 1360.42836,783.49259 1364.33516,783.49259 C1366.90498,783.529623 1369.34795,782.378201 1370.95503,780.372571 L1370.95503,744.302438 L1365.36613,741.87425 L1365.36613,740.300675 L1385.71408,736.70587 L1387.76244,736.895785 L1387.76244,783.017804 L1393.25638,785.323905 L1393.25638,786.788958 L1373.30183,789.230712 L1371.25347,789.040798 L1371.25347,782.977109 L1370.69729,782.977109 C1366.59948,786.979279 1361.13565,789.277376 1355.4092,789.407061 C1345.62862,789.407061 1341.15207,783.628243 1341.15207,774.865059 L1341.15207,744.302438 L1335.5089,741.887815 M1463.38898,736.67874 L1465.07108,736.868654 L1465.07108,751.790484 L1465.5323,751.790484 C1467.71632,740.938244 1472.51843,736.868654 1478.39221,736.868654 C1479.24546,736.828636 1480.09872,736.957778 1480.90179,737.248482 L1480.90179,752.360227 C1479.52491,752.069387 1478.11683,751.946349 1476.71011,751.993963 C1472.89283,751.89453 1469.10133,752.649981 1465.61369,754.205107 L1465.61369,783.628243 L1470.25303,786.20565 L1470.25303,788.22688 L1443.80069,788.22688 L1443.80069,786.219215 L1448.56211,783.628243 L1448.56211,743.46139 L1442.97321,741.792858 L1442.97321,740.436328 L1463.38898,736.67874 M1514.57086,737.926747 L1514.57086,722.231695 L1508.98196,720.278292 L1508.98196,719.04385 L1529.57408,715.259131 L1531.52749,715.544002 L1531.52749,782.949978 L1537.21135,785.011904 L1537.21135,786.748262 L1516.8634,789.461322 L1515.27626,789.271408 L1515.27626,783.7232 L1514.81504,783.7232 C1511.30027,787.449995 1506.37199,789.514905 1501.24974,789.407061 C1490.15332,789.407061 1482.05484,780.928748 1482.05484,763.632991 C1482.05484,745.360532 1491.46916,736.380303 1505.72629,736.380303 C1508.7527,736.225659 1511.77641,736.754163 1514.57086,737.926747 L1514.57086,737.926747 M1514.57086,781.105097 L1514.57086,740.74833 C1513.01085,739.424085 1510.97741,738.792214 1508.94126,738.998406 C1503.43375,739.18832 1500.02886,747.503849 1500.02886,762.330722 C1500.02886,775.651847 1502.47061,783.112762 1509.80944,782.855021 C1511.5553,782.865873 1513.24689,782.244311 1514.57086,781.105097 L1514.57086,781.105097 M1559.52627,736.67874 L1561.28975,736.868654 L1561.28975,783.628243 L1565.94265,786.20565 L1565.94265,788.22688 L1539.49032,788.22688 L1539.49032,786.219215 L1544.23817,783.628243 L1544.23817,744.207481 L1538.55431,741.969207 L1538.55431,740.409197 L1559.52627,736.67874 M1561.38471,724.03588 C1561.23007,728.885746 1557.20117,732.708176 1552.35022,732.60915 C1549.15424,732.735307 1546.14545,731.102181 1544.51084,728.35358 C1542.87486,725.605114 1542.87486,722.181911 1544.51084,719.43331 C1546.14545,716.684709 1549.15424,715.051582 1552.35022,715.177739 C1557.27443,715.117374 1561.31824,719.057144 1561.38471,723.981619 L1561.38471,724.03588 M1620.78716,783.628243 L1620.78716,743.773392 L1615.19826,741.819988 L1615.19826,739.893716 L1635.54621,736.108997 L1637.59457,736.298911 L1637.59457,742.267643 L1638.15074,742.267643 C1642.98406,738.135924 1649.12914,735.856954 1655.4872,735.837691 C1664.34534,735.837691 1668.25215,740.029369 1668.25215,749.402991 L1668.25215,783.546851 L1673,786.259911 L1673,788.22688 L1646.50697,788.22688 L1646.50697,786.219215 L1651.25482,783.628243 L1651.25482,750.24404 C1651.25482,745.116356 1649.01655,743.067996 1644.82487,743.067996 C1642.31122,742.997728 1639.84912,743.781938 1637.83874,745.292705 L1637.83874,783.614678 L1642.50521,786.192085 L1642.50521,788.22688 L1616.03931,788.22688 L1616.03931,786.219215 L1620.78716,783.628243 M1592.00159,758.586699 L1592.00159,751.899006 C1592.00159,741.833554 1589.80402,738.537186 1583.57754,738.537186 C1582.8735,738.554956 1582.17082,738.618442 1581.47492,738.7271 L1570.39207,753.743887 L1568.83206,753.743887 L1568.83206,739.907281 C1574.82114,737.85146 1581.09916,736.761624 1587.43009,736.67874 C1600.99539,736.67874 1608.8497,740.436328 1608.8497,751.790484 L1608.8497,784.347204 L1613.70607,785.622342 L1613.70607,786.89748 C1610.62132,788.482179 1607.1893,789.270323 1603.72201,789.190016 C1597.03432,789.190016 1593.83291,786.992437 1592.36786,783.329806 L1591.89307,783.329806 C1589.05792,787.168786 1585.02903,789.366365 1578.7076,789.366365 C1570.64981,789.366365 1565.1423,784.333639 1565.1423,775.638281 C1565.1423,767.21423 1570.36494,762.642724 1580.98657,760.621494 L1592.00159,758.586699 M1592.00159,781.105097 L1592.00159,760.960627 L1588.61027,761.231933 C1583.29267,761.693153 1581.37996,765.084478 1581.37996,772.586089 C1581.37996,780.725269 1584.09302,782.841456 1587.78279,782.841456 C1589.38892,782.988232 1590.96385,782.339675 1592.00159,781.105097 L1592.00159,781.105097 M1420.25133,758.586699 L1420.25133,751.899006 C1420.25133,741.833554 1418.05375,738.537186 1411.82728,738.537186 C1411.12324,738.554956 1410.42056,738.618306 1409.72466,738.7271 L1398.64181,753.730322 L1397.09536,753.730322 L1397.09536,739.907281 C1403.07997,737.852816 1409.35297,736.763116 1415.67983,736.67874 C1429.24512,736.67874 1437.09943,740.436328 1437.09943,751.790484 L1437.09943,784.347204 L1441.95581,785.622342 L1441.95581,786.89748 C1438.87106,788.482179 1435.43904,789.270323 1431.97175,789.190016 C1425.28406,789.190016 1422.08265,786.992437 1420.61759,783.329806 L1420.15637,783.329806 C1417.32123,787.168786 1413.29233,789.366365 1406.9709,789.366365 C1398.91311,789.366365 1393.4056,784.333639 1393.4056,775.638281 C1393.4056,767.21423 1398.62824,762.642724 1409.24987,760.621494 L1420.25133,758.586699 M1420.25133,781.105097 L1420.25133,760.960627 L1416.86001,761.231933 C1411.54241,761.693153 1409.6297,765.084478 1409.6297,772.586089 C1409.6297,780.725269 1412.34276,782.841456 1416.03252,782.841456 C1417.63865,782.988368 1419.21359,782.339675 1420.25133,781.105097" id="featured-guardian"></path>
        </g>
    </g>
</svg>