<?xml version="1.0" encoding="UTF-8"?>
<svg width="29px" height="24px" viewBox="0 0 29 24" version="1.1" xmlns="http://www.w3.org/2000/svg" xmlns:xlink="http://www.w3.org/1999/xlink">
    <!-- Generator: Sketch 59.1 (86144) - https://sketch.com -->
    <title>icon-twitter</title>
    <desc>Created with Sketch.</desc>
    <g id="Symbols" stroke="none" stroke-width="1" fill="none" fill-rule="evenodd">
        <g id="Elements/Footer/Desktop" transform="translate(-1183.000000, -190.000000)" fill="#FFFFFF">
            <g id="Footer">
                <g id="Group" transform="translate(1048.000000, 134.000000)">
                    <path d="M164,58.8410839 C162.933027,59.3230088 161.786424,59.648658 160.58295,59.795046 C161.811139,59.0451925 162.754662,57.8579084 163.19884,56.4430165 C162.049211,57.1373324 160.775879,57.6416007 159.420648,57.9132533 C158.335391,56.7356642 156.789122,56 155.077854,56 C151.792135,56 149.128076,58.7126733 149.128076,62.0586676 C149.128076,62.5335299 149.180658,62.9959363 149.282167,63.4394022 C144.337447,63.1866902 139.953357,60.7746261 137.018945,57.1089537 C136.506801,58.0037828 136.213372,59.0444862 136.213372,60.1549167 C136.213372,62.2569335 137.2637,64.111439 138.860156,65.197985 C137.884856,65.1664602 136.967434,64.893973 136.165329,64.4401058 C136.164761,64.4654669 136.164761,64.4906996 136.164761,64.5163817 C136.164761,67.4519116 138.215672,69.9005728 140.937421,70.457361 C140.438201,70.5957876 139.912565,70.6699447 139.369968,70.6699447 C138.986568,70.6699447 138.613888,70.631871 138.250538,70.5612452 C139.00769,72.9681729 141.204873,74.7200141 143.808469,74.7688101 C141.772249,76.3939743 139.206861,77.3624469 136.419289,77.3624469 C135.939047,77.3624469 135.465488,77.3338113 135,77.2776959 C137.633039,78.9967924 140.760443,80 144.120308,80 C155.06392,80 161.048439,70.7676651 161.048439,62.7611376 C161.048439,62.4984738 161.042638,62.2372225 161.031226,61.9773195 C162.193781,61.1231324 163.202434,60.0560405 164,58.8410839 Z" id="icon-twitter"></path>
                </g>
            </g>
        </g>
    </g>
</svg>