<?xml version="1.0" encoding="UTF-8"?>
<svg width="23px" height="24px" viewBox="0 0 23 24" version="1.1" xmlns="http://www.w3.org/2000/svg" xmlns:xlink="http://www.w3.org/1999/xlink">
    <!-- Generator: Sketch 59.1 (86144) - https://sketch.com -->
    <title>icon-linkedin</title>
    <desc>Created with Sketch.</desc>
    <g id="Symbols" stroke="none" stroke-width="1" fill="none" fill-rule="evenodd">
        <g id="Elements/Footer/Desktop" transform="translate(-1048.000000, -190.000000)" fill="#FFFFFF" fill-rule="nonzero">
            <g id="Footer">
                <g id="Group" transform="translate(1048.000000, 134.000000)">
                    <path d="M5.11111111,62.3157895 L5.11111111,80 L1.00808251e-13,80 L1.00808251e-13,62.3157895 L5.11111111,62.3157895 Z M12.7777778,62.3157895 L12.7777778,64.8421053 C13.0691111,63.6016842 13.6824444,62.3157895 17.2487222,62.3157895 C22.3342778,62.3157895 23,66.1052632 23,71.1578947 L23,80 L17.8888889,80 L17.8888889,69.8947368 C17.8888889,68.2374737 16.951,67.3684211 15.3333333,67.3684211 C13.6760556,67.3684211 12.7777778,68.2564211 12.7777778,69.8947368 L12.7777778,69.8947368 L12.7777778,80 L7.66666667,80 L7.66666667,62.3157895 L12.7777778,62.3157895 Z M2.55555556,56 C3.96694992,56 5.11111111,57.1310701 5.11111111,58.5263158 C5.11111111,59.9215615 3.96694992,61.0526316 2.55555556,61.0526316 C1.14416119,61.0526316 1.00808251e-13,59.9215615 1.00808251e-13,58.5263158 C1.00808251e-13,57.1310701 1.14416119,56 2.55555556,56 Z" id="icon-linkedin"></path>
                </g>
            </g>
        </g>
    </g>
</svg>