<?xml version="1.0" encoding="UTF-8"?>
<svg width="24px" height="24px" viewBox="0 0 24 24" version="1.1" xmlns="http://www.w3.org/2000/svg" xmlns:xlink="http://www.w3.org/1999/xlink">
    <!-- Generator: Sketch 63.1 (92452) - https://sketch.com -->
    <title>icon-insta</title>
    <desc>Created with Sketch.</desc>
    <g id="Symbols" stroke="none" stroke-width="1" fill="none" fill-rule="evenodd">
        <g id="Elements/Footer/Desktop" transform="translate(-1136.000000, -190.000000)" fill="#FFFFFF" fill-rule="nonzero">
            <g id="Footer">
                <g id="Group" transform="translate(1048.000000, 134.000000)">
                    <path d="M105.065327,56 C108.895522,56 112,59.1044778 112,62.9346734 L112,62.9346734 L112,73.0653266 C112,76.8955222 108.895522,80 105.065327,80 L105.065327,80 L94.9346734,80 C91.1044778,80 88,76.8955222 88,73.0653266 L88,73.0653266 L88,62.9346734 C88,59.1044778 91.1044778,56 94.9346734,56 L94.9346734,56 Z M105.065327,58.2914573 L94.9346734,58.2914573 C92.3700147,58.2914573 90.2914573,60.3700147 90.2914573,62.9346734 L90.2914573,62.9346734 L90.2914573,73.0653266 C90.2914573,75.6299853 92.3700147,77.7085427 94.9346734,77.7085427 L94.9346734,77.7085427 L105.065327,77.7085427 C107.629985,77.7085427 109.708543,75.6299853 109.708543,73.0653266 L109.708543,73.0653266 L109.708543,62.9346734 C109.708543,60.3700147 107.629985,58.2914573 105.065327,58.2914573 L105.065327,58.2914573 Z M100,62.0301508 C103.296648,62.0301508 105.969849,64.7033521 105.969849,68 C105.969849,71.2966479 103.296648,73.9698492 100,73.9698492 C96.7033521,73.9698492 94.0301508,71.2966479 94.0301508,68 C94.0301508,64.7033521 96.7033521,62.0301508 100,62.0301508 Z M100,64.321608 C97.9688891,64.321608 96.321608,65.9688891 96.321608,68 C96.321608,70.0311109 97.9688891,71.678392 100,71.678392 C102.031111,71.678392 103.678392,70.0311109 103.678392,68 C103.678392,65.9688891 102.031111,64.321608 100,64.321608 Z M106.609045,59.7628141 C107.460786,59.7628141 108.15997,60.4171691 108.231209,61.250492 L108.237186,61.3909548 L108.237186,61.3909548 C108.237186,62.2900147 107.508105,63.0190955 106.609045,63.0190955 C105.709985,63.0190955 104.980905,62.2900147 104.980905,61.3909548 C104.980905,60.4918949 105.709985,59.7628141 106.609045,59.7628141 Z" id="icon-insta"></path>
                </g>
            </g>
        </g>
    </g>
</svg>