<?xml version="1.0" encoding="utf-8"?>
<svg xmlns="http://www.w3.org/2000/svg" xmlns:xlink="http://www.w3.org/1999/xlink" style="margin: auto; background: none; display: block; shape-rendering: auto;" width="194px" height="194px" viewBox="0 0 100 100" preserveAspectRatio="xMidYMid">
<g transform="rotate(0 50 50)">
  <rect x="49.5" y="37.5" rx="0.5" ry="0.5" width="1" height="1" fill="#2a2cac">
    <animate attributeName="opacity" values="1;0" keyTimes="0;1" dur="1s" begin="-0.975s" repeatCount="indefinite"></animate>
  </rect>
</g><g transform="rotate(9 50 50)">
  <rect x="49.5" y="37.5" rx="0.5" ry="0.5" width="1" height="1" fill="#2a2cac">
    <animate attributeName="opacity" values="1;0" keyTimes="0;1" dur="1s" begin="-0.95s" repeatCount="indefinite"></animate>
  </rect>
</g><g transform="rotate(18 50 50)">
  <rect x="49.5" y="37.5" rx="0.5" ry="0.5" width="1" height="1" fill="#2a2cac">
    <animate attributeName="opacity" values="1;0" keyTimes="0;1" dur="1s" begin="-0.925s" repeatCount="indefinite"></animate>
  </rect>
</g><g transform="rotate(27 50 50)">
  <rect x="49.5" y="37.5" rx="0.5" ry="0.5" width="1" height="1" fill="#2a2cac">
    <animate attributeName="opacity" values="1;0" keyTimes="0;1" dur="1s" begin="-0.9s" repeatCount="indefinite"></animate>
  </rect>
</g><g transform="rotate(36 50 50)">
  <rect x="49.5" y="37.5" rx="0.5" ry="0.5" width="1" height="1" fill="#2a2cac">
    <animate attributeName="opacity" values="1;0" keyTimes="0;1" dur="1s" begin="-0.875s" repeatCount="indefinite"></animate>
  </rect>
</g><g transform="rotate(45 50 50)">
  <rect x="49.5" y="37.5" rx="0.5" ry="0.5" width="1" height="1" fill="#2a2cac">
    <animate attributeName="opacity" values="1;0" keyTimes="0;1" dur="1s" begin="-0.85s" repeatCount="indefinite"></animate>
  </rect>
</g><g transform="rotate(54 50 50)">
  <rect x="49.5" y="37.5" rx="0.5" ry="0.5" width="1" height="1" fill="#2a2cac">
    <animate attributeName="opacity" values="1;0" keyTimes="0;1" dur="1s" begin="-0.825s" repeatCount="indefinite"></animate>
  </rect>
</g><g transform="rotate(63 50 50)">
  <rect x="49.5" y="37.5" rx="0.5" ry="0.5" width="1" height="1" fill="#2a2cac">
    <animate attributeName="opacity" values="1;0" keyTimes="0;1" dur="1s" begin="-0.8s" repeatCount="indefinite"></animate>
  </rect>
</g><g transform="rotate(72 50 50)">
  <rect x="49.5" y="37.5" rx="0.5" ry="0.5" width="1" height="1" fill="#2a2cac">
    <animate attributeName="opacity" values="1;0" keyTimes="0;1" dur="1s" begin="-0.775s" repeatCount="indefinite"></animate>
  </rect>
</g><g transform="rotate(81 50 50)">
  <rect x="49.5" y="37.5" rx="0.5" ry="0.5" width="1" height="1" fill="#2a2cac">
    <animate attributeName="opacity" values="1;0" keyTimes="0;1" dur="1s" begin="-0.75s" repeatCount="indefinite"></animate>
  </rect>
</g><g transform="rotate(90 50 50)">
  <rect x="49.5" y="37.5" rx="0.5" ry="0.5" width="1" height="1" fill="#2a2cac">
    <animate attributeName="opacity" values="1;0" keyTimes="0;1" dur="1s" begin="-0.725s" repeatCount="indefinite"></animate>
  </rect>
</g><g transform="rotate(99 50 50)">
  <rect x="49.5" y="37.5" rx="0.5" ry="0.5" width="1" height="1" fill="#2a2cac">
    <animate attributeName="opacity" values="1;0" keyTimes="0;1" dur="1s" begin="-0.7s" repeatCount="indefinite"></animate>
  </rect>
</g><g transform="rotate(108 50 50)">
  <rect x="49.5" y="37.5" rx="0.5" ry="0.5" width="1" height="1" fill="#2a2cac">
    <animate attributeName="opacity" values="1;0" keyTimes="0;1" dur="1s" begin="-0.675s" repeatCount="indefinite"></animate>
  </rect>
</g><g transform="rotate(117 50 50)">
  <rect x="49.5" y="37.5" rx="0.5" ry="0.5" width="1" height="1" fill="#2a2cac">
    <animate attributeName="opacity" values="1;0" keyTimes="0;1" dur="1s" begin="-0.65s" repeatCount="indefinite"></animate>
  </rect>
</g><g transform="rotate(126 50 50)">
  <rect x="49.5" y="37.5" rx="0.5" ry="0.5" width="1" height="1" fill="#2a2cac">
    <animate attributeName="opacity" values="1;0" keyTimes="0;1" dur="1s" begin="-0.625s" repeatCount="indefinite"></animate>
  </rect>
</g><g transform="rotate(135 50 50)">
  <rect x="49.5" y="37.5" rx="0.5" ry="0.5" width="1" height="1" fill="#2a2cac">
    <animate attributeName="opacity" values="1;0" keyTimes="0;1" dur="1s" begin="-0.6s" repeatCount="indefinite"></animate>
  </rect>
</g><g transform="rotate(144 50 50)">
  <rect x="49.5" y="37.5" rx="0.5" ry="0.5" width="1" height="1" fill="#2a2cac">
    <animate attributeName="opacity" values="1;0" keyTimes="0;1" dur="1s" begin="-0.575s" repeatCount="indefinite"></animate>
  </rect>
</g><g transform="rotate(153 50 50)">
  <rect x="49.5" y="37.5" rx="0.5" ry="0.5" width="1" height="1" fill="#2a2cac">
    <animate attributeName="opacity" values="1;0" keyTimes="0;1" dur="1s" begin="-0.55s" repeatCount="indefinite"></animate>
  </rect>
</g><g transform="rotate(162 50 50)">
  <rect x="49.5" y="37.5" rx="0.5" ry="0.5" width="1" height="1" fill="#2a2cac">
    <animate attributeName="opacity" values="1;0" keyTimes="0;1" dur="1s" begin="-0.525s" repeatCount="indefinite"></animate>
  </rect>
</g><g transform="rotate(171 50 50)">
  <rect x="49.5" y="37.5" rx="0.5" ry="0.5" width="1" height="1" fill="#2a2cac">
    <animate attributeName="opacity" values="1;0" keyTimes="0;1" dur="1s" begin="-0.5s" repeatCount="indefinite"></animate>
  </rect>
</g><g transform="rotate(180 50 50)">
  <rect x="49.5" y="37.5" rx="0.5" ry="0.5" width="1" height="1" fill="#2a2cac">
    <animate attributeName="opacity" values="1;0" keyTimes="0;1" dur="1s" begin="-0.475s" repeatCount="indefinite"></animate>
  </rect>
</g><g transform="rotate(189 50 50)">
  <rect x="49.5" y="37.5" rx="0.5" ry="0.5" width="1" height="1" fill="#2a2cac">
    <animate attributeName="opacity" values="1;0" keyTimes="0;1" dur="1s" begin="-0.45s" repeatCount="indefinite"></animate>
  </rect>
</g><g transform="rotate(198 50 50)">
  <rect x="49.5" y="37.5" rx="0.5" ry="0.5" width="1" height="1" fill="#2a2cac">
    <animate attributeName="opacity" values="1;0" keyTimes="0;1" dur="1s" begin="-0.425s" repeatCount="indefinite"></animate>
  </rect>
</g><g transform="rotate(207 50 50)">
  <rect x="49.5" y="37.5" rx="0.5" ry="0.5" width="1" height="1" fill="#2a2cac">
    <animate attributeName="opacity" values="1;0" keyTimes="0;1" dur="1s" begin="-0.4s" repeatCount="indefinite"></animate>
  </rect>
</g><g transform="rotate(216 50 50)">
  <rect x="49.5" y="37.5" rx="0.5" ry="0.5" width="1" height="1" fill="#2a2cac">
    <animate attributeName="opacity" values="1;0" keyTimes="0;1" dur="1s" begin="-0.375s" repeatCount="indefinite"></animate>
  </rect>
</g><g transform="rotate(225 50 50)">
  <rect x="49.5" y="37.5" rx="0.5" ry="0.5" width="1" height="1" fill="#2a2cac">
    <animate attributeName="opacity" values="1;0" keyTimes="0;1" dur="1s" begin="-0.35s" repeatCount="indefinite"></animate>
  </rect>
</g><g transform="rotate(234 50 50)">
  <rect x="49.5" y="37.5" rx="0.5" ry="0.5" width="1" height="1" fill="#2a2cac">
    <animate attributeName="opacity" values="1;0" keyTimes="0;1" dur="1s" begin="-0.325s" repeatCount="indefinite"></animate>
  </rect>
</g><g transform="rotate(243 50 50)">
  <rect x="49.5" y="37.5" rx="0.5" ry="0.5" width="1" height="1" fill="#2a2cac">
    <animate attributeName="opacity" values="1;0" keyTimes="0;1" dur="1s" begin="-0.3s" repeatCount="indefinite"></animate>
  </rect>
</g><g transform="rotate(252 50 50)">
  <rect x="49.5" y="37.5" rx="0.5" ry="0.5" width="1" height="1" fill="#2a2cac">
    <animate attributeName="opacity" values="1;0" keyTimes="0;1" dur="1s" begin="-0.275s" repeatCount="indefinite"></animate>
  </rect>
</g><g transform="rotate(261 50 50)">
  <rect x="49.5" y="37.5" rx="0.5" ry="0.5" width="1" height="1" fill="#2a2cac">
    <animate attributeName="opacity" values="1;0" keyTimes="0;1" dur="1s" begin="-0.25s" repeatCount="indefinite"></animate>
  </rect>
</g><g transform="rotate(270 50 50)">
  <rect x="49.5" y="37.5" rx="0.5" ry="0.5" width="1" height="1" fill="#2a2cac">
    <animate attributeName="opacity" values="1;0" keyTimes="0;1" dur="1s" begin="-0.225s" repeatCount="indefinite"></animate>
  </rect>
</g><g transform="rotate(279 50 50)">
  <rect x="49.5" y="37.5" rx="0.5" ry="0.5" width="1" height="1" fill="#2a2cac">
    <animate attributeName="opacity" values="1;0" keyTimes="0;1" dur="1s" begin="-0.2s" repeatCount="indefinite"></animate>
  </rect>
</g><g transform="rotate(288 50 50)">
  <rect x="49.5" y="37.5" rx="0.5" ry="0.5" width="1" height="1" fill="#2a2cac">
    <animate attributeName="opacity" values="1;0" keyTimes="0;1" dur="1s" begin="-0.175s" repeatCount="indefinite"></animate>
  </rect>
</g><g transform="rotate(297 50 50)">
  <rect x="49.5" y="37.5" rx="0.5" ry="0.5" width="1" height="1" fill="#2a2cac">
    <animate attributeName="opacity" values="1;0" keyTimes="0;1" dur="1s" begin="-0.15s" repeatCount="indefinite"></animate>
  </rect>
</g><g transform="rotate(306 50 50)">
  <rect x="49.5" y="37.5" rx="0.5" ry="0.5" width="1" height="1" fill="#2a2cac">
    <animate attributeName="opacity" values="1;0" keyTimes="0;1" dur="1s" begin="-0.125s" repeatCount="indefinite"></animate>
  </rect>
</g><g transform="rotate(315 50 50)">
  <rect x="49.5" y="37.5" rx="0.5" ry="0.5" width="1" height="1" fill="#2a2cac">
    <animate attributeName="opacity" values="1;0" keyTimes="0;1" dur="1s" begin="-0.1s" repeatCount="indefinite"></animate>
  </rect>
</g><g transform="rotate(324 50 50)">
  <rect x="49.5" y="37.5" rx="0.5" ry="0.5" width="1" height="1" fill="#2a2cac">
    <animate attributeName="opacity" values="1;0" keyTimes="0;1" dur="1s" begin="-0.075s" repeatCount="indefinite"></animate>
  </rect>
</g><g transform="rotate(333 50 50)">
  <rect x="49.5" y="37.5" rx="0.5" ry="0.5" width="1" height="1" fill="#2a2cac">
    <animate attributeName="opacity" values="1;0" keyTimes="0;1" dur="1s" begin="-0.05s" repeatCount="indefinite"></animate>
  </rect>
</g><g transform="rotate(342 50 50)">
  <rect x="49.5" y="37.5" rx="0.5" ry="0.5" width="1" height="1" fill="#2a2cac">
    <animate attributeName="opacity" values="1;0" keyTimes="0;1" dur="1s" begin="-0.025s" repeatCount="indefinite"></animate>
  </rect>
</g><g transform="rotate(351 50 50)">
  <rect x="49.5" y="37.5" rx="0.5" ry="0.5" width="1" height="1" fill="#2a2cac">
    <animate attributeName="opacity" values="1;0" keyTimes="0;1" dur="1s" begin="0s" repeatCount="indefinite"></animate>
  </rect>
</g>
<!-- [ldio] generated by https://loading.io/ --></svg>